<svg preserveAspectRatio="none" width="100%" height="100%" overflow="visible" style="display: block;" viewBox="0 0 20 20" fill="none" xmlns="http://www.w3.org/2000/svg">
<g id="OrTradeX-&#231;&#187;&#191; 1">
<path id="Vector" fill-rule="evenodd" clip-rule="evenodd" d="M17.7561 3.85089C17.7985 3.85089 17.8435 3.83778 17.8853 3.86327C17.887 3.916 17.8445 3.9401 17.8177 3.97124C16.2537 5.77595 14.69 7.58098 13.1204 9.38073C13.022 9.49331 13.0553 9.54746 13.1328 9.63845C14.9531 11.7709 16.7712 13.9056 18.589 16.0402C18.6159 16.0721 18.657 16.0965 18.6598 16.1489C18.6156 16.1811 18.5657 16.1655 18.5196 16.1655C16.6622 16.1662 14.8044 16.1652 12.9469 16.1687C12.8422 16.1691 12.7784 16.134 12.714 16.0554C11.8828 15.0441 11.0484 14.0355 10.2148 13.0262C10.0944 12.8804 10.0948 12.8807 9.96732 13.0277C9.54146 13.5186 9.11346 14.0082 8.69008 14.5014C8.63026 14.5711 8.56971 14.6019 8.47626 14.6012C7.79516 14.5973 7.11408 14.5994 6.43297 14.598C6.39191 14.598 6.3328 14.6231 6.31262 14.5764C6.29315 14.5315 6.34941 14.5024 6.37632 14.4709C8.32085 12.2057 10.2661 9.94148 12.2113 7.67728C13.2776 6.43614 14.3442 5.19537 15.4083 3.95213C15.4717 3.87813 15.5344 3.84699 15.6331 3.8477C16.3408 3.8523 17.0484 3.84982 17.7561 3.85089ZM11.8266 4.20701C12.0549 3.94469 12.2751 3.82256 12.6301 3.84026C13.2783 3.87246 13.9297 3.84876 14.5796 3.85018C14.6257 3.85053 14.6759 3.83388 14.7322 3.87707C14.6366 3.98858 14.5435 4.09833 14.4494 4.20701C12.4928 6.46057 10.5359 8.71345 8.57967 10.967C7.10453 12.6662 5.63049 14.3658 4.15748 16.0668C4.09766 16.1358 4.03606 16.1669 3.9426 16.1666C3.12026 16.1631 2.29756 16.1645 1.4752 16.1638C1.43733 16.1638 1.38283 16.1836 1.36442 16.1478C1.33928 16.1 1.39769 16.0731 1.42424 16.0423C3.26152 13.9077 5.13949 11.8088 6.99976 9.69404C8.60835 7.8649 10.2272 6.04427 11.8266 4.20701ZM7.85148 3.84768C7.94459 3.84768 8.00618 3.87707 8.066 3.94679C8.56408 4.52734 9.06356 5.10687 9.56732 5.68211C9.65087 5.77734 9.66644 5.834 9.56874 5.93949C8.64055 6.94165 7.71872 7.94984 6.79868 8.9598C6.7201 9.04618 6.68327 9.05433 6.60008 8.96089C5.11152 7.28469 3.61904 5.61238 2.12693 3.93937C2.10959 3.9199 2.09364 3.89937 2.06992 3.87104C2.12622 3.83778 2.17083 3.85016 2.21331 3.85016C4.0927 3.84909 5.97209 3.85016 7.85148 3.84768Z" fill="var(--fill-0, #07D4AA)"/>
</g>
</svg>
