<svg width="601" height="534" viewBox="0 0 601 534" fill="none" xmlns="http://www.w3.org/2000/svg">
<path d="M442 313H246.086V1H-1.00136e-05" stroke="#3AE2C8" stroke-opacity="0.2"/>
<g filter="url(#filter0_f_452_517)">
<circle cx="10" cy="10" r="10" transform="matrix(-1 0 0 1 452 303)" fill="#1FFACD" fill-opacity="0.6"/>
</g>
<circle cx="10" cy="10" r="10" transform="matrix(-1 0 0 1 452 303)" fill="#16866F"/>
<circle cx="5" cy="5" r="5" transform="matrix(-1 0 0 1 447 308)" fill="#C0FFF2"/>
<path d="M583 459H300.096V183H1.4489e-06" stroke="#3AE2C8" stroke-opacity="0.2"/>
<g filter="url(#filter1_f_452_517)">
<circle cx="10" cy="10" r="10" transform="matrix(-1 0 0 1 593 449)" fill="#16866F"/>
</g>
<g filter="url(#filter2_d_452_517)">
<circle cx="10" cy="10" r="10" transform="matrix(-1 0 0 1 593 449)" fill="#16866F"/>
</g>
<circle cx="5" cy="5" r="5" transform="matrix(-1 0 0 1 588 454)" fill="#C0FFF2"/>
<path d="M583 105H338.108V533H1.4489e-06" stroke="#3AE2C8" stroke-opacity="0.2"/>
<g filter="url(#filter3_f_452_517)">
<circle cx="583" cy="105" r="10" transform="rotate(180 583 105)" fill="#16866F"/>
</g>
<circle cx="583" cy="105" r="10" transform="rotate(180 583 105)" fill="#16866F"/>
<circle cx="583" cy="105" r="5" transform="rotate(180 583 105)" fill="#C0FFF2"/>
<circle cx="246" cy="183" r="1" fill="white"/>
<circle cx="246" cy="1" r="1" fill="white"/>
<circle cx="300" cy="183" r="1" fill="white"/>
<circle cx="300" cy="313" r="1" fill="white"/>
<circle cx="246" cy="313" r="1" fill="white"/>
<circle cx="338" cy="313" r="1" fill="white"/>
<circle cx="338" cy="105" r="1" fill="white"/>
<circle cx="338" cy="459" r="1" fill="white"/>
<circle cx="300" cy="459" r="1" fill="white"/>
<circle cx="338" cy="533" r="1" fill="white"/>
<defs>
<filter id="filter0_f_452_517" x="424" y="295" width="36" height="36" filterUnits="userSpaceOnUse" color-interpolation-filters="sRGB">
<feFlood flood-opacity="0" result="BackgroundImageFix"/>
<feBlend mode="normal" in="SourceGraphic" in2="BackgroundImageFix" result="shape"/>
<feGaussianBlur stdDeviation="4" result="effect1_foregroundBlur_452_517"/>
</filter>
<filter id="filter1_f_452_517" x="565" y="441" width="36" height="36" filterUnits="userSpaceOnUse" color-interpolation-filters="sRGB">
<feFlood flood-opacity="0" result="BackgroundImageFix"/>
<feBlend mode="normal" in="SourceGraphic" in2="BackgroundImageFix" result="shape"/>
<feGaussianBlur stdDeviation="4" result="effect1_foregroundBlur_452_517"/>
</filter>
<filter id="filter2_d_452_517" x="569" y="449" width="28" height="28" filterUnits="userSpaceOnUse" color-interpolation-filters="sRGB">
<feFlood flood-opacity="0" result="BackgroundImageFix"/>
<feColorMatrix in="SourceAlpha" type="matrix" values="0 0 0 0 0 0 0 0 0 0 0 0 0 0 0 0 0 0 127 0" result="hardAlpha"/>
<feOffset dy="4"/>
<feGaussianBlur stdDeviation="2"/>
<feComposite in2="hardAlpha" operator="out"/>
<feColorMatrix type="matrix" values="0 0 0 0 0 0 0 0 0 0 0 0 0 0 0 0 0 0 0.25 0"/>
<feBlend mode="normal" in2="BackgroundImageFix" result="effect1_dropShadow_452_517"/>
<feBlend mode="normal" in="SourceGraphic" in2="effect1_dropShadow_452_517" result="shape"/>
</filter>
<filter id="filter3_f_452_517" x="565" y="87" width="36" height="36" filterUnits="userSpaceOnUse" color-interpolation-filters="sRGB">
<feFlood flood-opacity="0" result="BackgroundImageFix"/>
<feBlend mode="normal" in="SourceGraphic" in2="BackgroundImageFix" result="shape"/>
<feGaussianBlur stdDeviation="4" result="effect1_foregroundBlur_452_517"/>
</filter>
</defs>
</svg>
