<svg width="166" height="70" viewBox="0 0 166 70" fill="none" xmlns="http://www.w3.org/2000/svg">
<path d="M16.6849 8C11.9577 8.25267 8.15625 11.9024 8.03001 16.4982C7.90657 21.0182 11.7192 25.3866 16.2978 25.4231C22.7617 25.4736 26.0469 30.193 26.0385 34.6092C26.0273 40.5385 22.4615 44.351 16.3062 44.8564C11.6912 45.2326 8.26847 48.3882 8.01879 52.4983C7.73823 57.066 10.6223 60.8308 15.184 61.85C19.6757 62.8551 24.7873 58.6691 25.0566 53.5062C25.2726 49.3456 26.8213 46.2686 30.7433 44.5223C34.7328 42.748 38.2593 43.565 41.4828 46.2601C43.845 48.2366 44.2294 51.0468 44.5296 53.8684C45.1973 60.1515 51.375 63.6916 56.8542 60.9291C59.943 59.371 62.1987 54.9997 61.5169 51.8891C60.6613 47.9867 57.4714 45.1821 53.6222 44.9013C46.774 44.4016 40.3466 42.922 34.9404 38.1774C28.6981 32.6973 25.3989 25.9313 25.1295 17.6914C25.0117 14.0754 22.7224 10.4285 20.652 9.20441C19.4905 8.51938 18.2925 8 16.6849 8Z" fill="white"/>
<path d="M47.1416 8.32028C39.4827 8.33432 32.9205 14.8111 32.9121 22.3716C32.9038 30.0051 39.6509 36.7459 47.2398 36.6869C55.0812 36.6251 61.9014 29.8872 61.5563 22.1443C61.2505 15.2659 55.2636 7.75317 47.1416 8.32028Z" fill="white"/>
<path d="M97.5568 35.2727C97.5568 37.1761 97.196 38.7955 96.4744 40.1307C95.7585 41.4659 94.7813 42.4858 93.5426 43.1903C92.3097 43.8892 90.9233 44.2386 89.3835 44.2386C87.8324 44.2386 86.4403 43.8864 85.2074 43.1818C83.9744 42.4773 83 41.4574 82.2841 40.1222C81.5682 38.7869 81.2102 37.1705 81.2102 35.2727C81.2102 33.3693 81.5682 31.75 82.2841 30.4148C83 29.0795 83.9744 28.0625 85.2074 27.3636C86.4403 26.6591 87.8324 26.3068 89.3835 26.3068C90.9233 26.3068 92.3097 26.6591 93.5426 27.3636C94.7813 28.0625 95.7585 29.0795 96.4744 30.4148C97.196 31.75 97.5568 33.3693 97.5568 35.2727ZM93.8153 35.2727C93.8153 34.0398 93.6307 33 93.2614 32.1534C92.8977 31.3068 92.3835 30.6648 91.7188 30.2273C91.054 29.7898 90.2756 29.571 89.3835 29.571C88.4915 29.571 87.7131 29.7898 87.0483 30.2273C86.3835 30.6648 85.8665 31.3068 85.4972 32.1534C85.1335 33 84.9517 34.0398 84.9517 35.2727C84.9517 36.5057 85.1335 37.5455 85.4972 38.392C85.8665 39.2386 86.3835 39.8807 87.0483 40.3182C87.7131 40.7557 88.4915 40.9744 89.3835 40.9744C90.2756 40.9744 91.054 40.7557 91.7188 40.3182C92.3835 39.8807 92.8977 39.2386 93.2614 38.392C93.6307 37.5455 93.8153 36.5057 93.8153 35.2727ZM100.222 44V30.9091H103.742V33.1932H103.879C104.117 32.3807 104.518 31.767 105.08 31.3523C105.643 30.9318 106.29 30.7216 107.023 30.7216C107.205 30.7216 107.401 30.733 107.612 30.7557C107.822 30.7784 108.006 30.8097 108.165 30.8494V34.071C107.995 34.0199 107.759 33.9744 107.458 33.9347C107.157 33.8949 106.881 33.875 106.631 33.875C106.097 33.875 105.62 33.9915 105.2 34.2244C104.785 34.4517 104.455 34.7699 104.211 35.179C103.972 35.5881 103.853 36.0597 103.853 36.5938V44H100.222ZM110.043 44V30.9091H113.673V44H110.043ZM111.866 29.2216C111.327 29.2216 110.864 29.0426 110.477 28.6847C110.097 28.321 109.906 27.8864 109.906 27.3807C109.906 26.8807 110.097 26.4517 110.477 26.0938C110.864 25.7301 111.327 25.5483 111.866 25.5483C112.406 25.5483 112.866 25.7301 113.247 26.0938C113.634 26.4517 113.827 26.8807 113.827 27.3807C113.827 27.8864 113.634 28.321 113.247 28.6847C112.866 29.0426 112.406 29.2216 111.866 29.2216ZM122.479 49.1818C121.303 49.1818 120.295 49.0199 119.454 48.696C118.619 48.3778 117.954 47.9432 117.46 47.392C116.965 46.8409 116.644 46.2216 116.496 45.5341L119.854 45.0824C119.957 45.3438 120.119 45.5881 120.34 45.8153C120.562 46.0426 120.854 46.2244 121.218 46.3608C121.587 46.5028 122.036 46.5739 122.565 46.5739C123.354 46.5739 124.005 46.3807 124.516 45.9943C125.033 45.6136 125.292 44.9744 125.292 44.0767V41.6818H125.138C124.979 42.0455 124.741 42.3892 124.423 42.7131C124.104 43.0369 123.695 43.3011 123.195 43.5057C122.695 43.7102 122.099 43.8125 121.406 43.8125C120.423 43.8125 119.528 43.5852 118.721 43.1307C117.92 42.6705 117.281 41.9687 116.803 41.0256C116.332 40.0767 116.096 38.8778 116.096 37.429C116.096 35.946 116.337 34.7074 116.82 33.7131C117.303 32.7187 117.945 31.9744 118.746 31.4801C119.553 30.9858 120.437 30.7386 121.397 30.7386C122.13 30.7386 122.744 30.8636 123.238 31.1136C123.732 31.358 124.13 31.6648 124.431 32.0341C124.738 32.3977 124.974 32.7557 125.138 33.108H125.275V30.9091H128.88V44.1278C128.88 45.2415 128.607 46.1733 128.062 46.9233C127.516 47.6733 126.761 48.2358 125.795 48.6108C124.835 48.9915 123.729 49.1818 122.479 49.1818ZM122.556 41.0852C123.141 41.0852 123.636 40.9403 124.039 40.6506C124.448 40.3551 124.761 39.9347 124.977 39.3892C125.198 38.8381 125.309 38.179 125.309 37.4119C125.309 36.6449 125.201 35.9801 124.985 35.4176C124.769 34.8494 124.457 34.4091 124.048 34.0966C123.638 33.7841 123.141 33.6278 122.556 33.6278C121.96 33.6278 121.457 33.7898 121.048 34.1136C120.638 34.4318 120.329 34.875 120.119 35.4432C119.908 36.0114 119.803 36.6676 119.803 37.4119C119.803 38.1676 119.908 38.821 120.119 39.3722C120.335 39.9176 120.644 40.3409 121.048 40.642C121.457 40.9375 121.96 41.0852 122.556 41.0852ZM131.769 44V30.9091H135.4V44H131.769ZM133.593 29.2216C133.053 29.2216 132.59 29.0426 132.204 28.6847C131.823 28.321 131.633 27.8864 131.633 27.3807C131.633 26.8807 131.823 26.4517 132.204 26.0938C132.59 25.7301 133.053 25.5483 133.593 25.5483C134.133 25.5483 134.593 25.7301 134.974 26.0938C135.36 26.4517 135.553 26.8807 135.553 27.3807C135.553 27.8864 135.36 28.321 134.974 28.6847C134.593 29.0426 134.133 29.2216 133.593 29.2216ZM141.939 36.4318V44H138.308V30.9091H141.768V33.2188H141.922C142.212 32.4574 142.697 31.8551 143.379 31.4119C144.061 30.9631 144.888 30.7386 145.859 30.7386C146.768 30.7386 147.561 30.9375 148.237 31.3352C148.913 31.733 149.439 32.3011 149.814 33.0398C150.189 33.7727 150.376 34.6477 150.376 35.6648V44H146.746V36.3125C146.751 35.5114 146.547 34.8864 146.132 34.4375C145.717 33.983 145.146 33.7557 144.419 33.7557C143.93 33.7557 143.499 33.8608 143.124 34.071C142.754 34.2812 142.464 34.5881 142.254 34.9915C142.05 35.3892 141.945 35.8693 141.939 36.4318ZM164.13 34.642L160.806 34.8466C160.749 34.5625 160.627 34.3068 160.44 34.0795C160.252 33.8466 160.005 33.6619 159.698 33.5256C159.397 33.3835 159.036 33.3125 158.616 33.3125C158.053 33.3125 157.579 33.4318 157.192 33.6705C156.806 33.9034 156.613 34.2159 156.613 34.608C156.613 34.9205 156.738 35.1847 156.988 35.4006C157.238 35.6165 157.667 35.7898 158.275 35.9205L160.644 36.3977C161.917 36.6591 162.866 37.0795 163.491 37.6591C164.116 38.2386 164.428 39 164.428 39.9432C164.428 40.8011 164.175 41.554 163.67 42.2017C163.17 42.8494 162.482 43.3551 161.607 43.7188C160.738 44.0767 159.735 44.2557 158.599 44.2557C156.866 44.2557 155.485 43.8949 154.457 43.1733C153.434 42.446 152.835 41.4574 152.658 40.2074L156.229 40.0199C156.337 40.5483 156.599 40.9517 157.013 41.2301C157.428 41.5028 157.96 41.6392 158.607 41.6392C159.244 41.6392 159.755 41.517 160.141 41.2727C160.533 41.0227 160.732 40.7017 160.738 40.3097C160.732 39.9801 160.593 39.7102 160.32 39.5C160.048 39.2841 159.627 39.1193 159.059 39.0057L156.792 38.554C155.513 38.2983 154.562 37.8551 153.937 37.2244C153.317 36.5937 153.008 35.7898 153.008 34.8125C153.008 33.9716 153.235 33.2472 153.69 32.6392C154.15 32.0312 154.795 31.5625 155.624 31.233C156.46 30.9034 157.437 30.7386 158.556 30.7386C160.21 30.7386 161.511 31.0881 162.46 31.7869C163.414 32.4858 163.971 33.4375 164.13 34.642Z" fill="white"/>
</svg>
