<svg width="121" height="125" viewBox="0 0 121 125" fill="none" xmlns="http://www.w3.org/2000/svg">
<g filter="url(#filter0_if_261_4277)">
<ellipse cx="60.4124" cy="59.9923" rx="50.4124" ry="49.9923" fill="url(#paint0_linear_261_4277)"/>
</g>
<g filter="url(#filter1_f_261_4277)" style="mix-blend-mode:overlay">
<circle cx="60.2024" cy="60.2024" r="50.2024" fill="url(#paint1_linear_261_4277)"/>
<circle cx="60.2024" cy="60.2024" r="50.2024" fill="url(#paint2_linear_261_4277)"/>
</g>
<path d="M72.6789 53.554C84.9622 66.5734 94.6587 79.6791 100.411 90.3336C103.289 95.664 105.165 100.355 105.895 104.1C106.631 107.874 106.177 110.53 104.63 111.99C103.082 113.45 100.403 113.75 96.679 112.796C92.9829 111.849 88.4084 109.703 83.2543 106.52C72.9524 100.158 60.4325 89.716 48.1493 76.6967C35.866 63.6771 26.1689 50.5709 20.4168 39.9164C17.5392 34.5862 15.6631 29.8951 14.9329 26.1503C14.1971 22.3768 14.6518 19.72 16.1994 18.26C17.747 16.8001 20.4251 16.5011 24.1493 17.455C27.8453 18.4017 32.4193 20.5474 37.5733 23.73C47.8753 30.0918 60.3956 40.5345 72.6789 53.554Z" stroke="url(#paint3_linear_261_4277)"/>
<g filter="url(#filter2_f_261_4277)">
<path d="M15.0638 27.4786C17.9165 39.0772 30.3247 58.162 48.1349 77.0396C72.7437 103.123 98.347 118.934 105.322 112.354C107.298 110.489 107.566 107.025 106.375 102.426" stroke="url(#paint4_linear_261_4277)" stroke-width="2"/>
</g>
<path d="M72.6421 76.851C60.2374 89.7547 47.6203 100.079 37.2591 106.344C32.0754 109.478 27.4811 111.582 23.7763 112.494C20.0433 113.413 17.3681 113.088 15.8342 111.614C14.3004 110.14 13.8706 107.479 14.6417 103.712C15.407 99.9744 17.3275 95.3007 20.2551 89.9975C26.1068 79.3975 35.9258 66.3832 48.3304 53.4795C60.7353 40.5756 73.3529 30.2508 83.7141 23.9858C88.8976 20.8516 93.4916 18.7489 97.1963 17.8369C100.929 16.9179 103.605 17.2425 105.139 18.717C106.673 20.1915 107.102 22.8519 106.331 26.6182C105.566 30.3559 103.646 35.0292 100.718 40.3323C94.8664 50.9324 85.0469 63.9471 72.6421 76.851Z" stroke="url(#paint5_linear_261_4277)"/>
<g filter="url(#filter3_f_261_4277)">
<path d="M95.876 18.0325C84.4303 21.4476 65.9735 34.772 47.9872 53.4818C23.135 79.3338 8.59201 105.678 15.5045 112.323C17.4637 114.206 20.9361 114.305 25.4725 112.891" stroke="url(#paint6_linear_261_4277)" stroke-width="2"/>
</g>
<defs>
<filter id="filter0_if_261_4277" x="4" y="4" width="112.825" height="111.985" filterUnits="userSpaceOnUse" color-interpolation-filters="sRGB">
<feFlood flood-opacity="0" result="BackgroundImageFix"/>
<feBlend mode="normal" in="SourceGraphic" in2="BackgroundImageFix" result="shape"/>
<feColorMatrix in="SourceAlpha" type="matrix" values="0 0 0 0 0 0 0 0 0 0 0 0 0 0 0 0 0 0 127 0" result="hardAlpha"/>
<feOffset dy="-4"/>
<feGaussianBlur stdDeviation="5"/>
<feComposite in2="hardAlpha" operator="arithmetic" k2="-1" k3="1"/>
<feColorMatrix type="matrix" values="0 0 0 0 1 0 0 0 0 1 0 0 0 0 1 0 0 0 0.51 0"/>
<feBlend mode="normal" in2="shape" result="effect1_innerShadow_261_4277"/>
<feGaussianBlur stdDeviation="3" result="effect2_foregroundBlur_261_4277"/>
</filter>
<filter id="filter1_f_261_4277" x="0" y="0" width="120.405" height="120.405" filterUnits="userSpaceOnUse" color-interpolation-filters="sRGB">
<feFlood flood-opacity="0" result="BackgroundImageFix"/>
<feBlend mode="normal" in="SourceGraphic" in2="BackgroundImageFix" result="shape"/>
<feGaussianBlur stdDeviation="5" result="effect1_foregroundBlur_261_4277"/>
</filter>
<filter id="filter2_f_261_4277" x="10.0928" y="23.2397" width="101.995" height="95.6047" filterUnits="userSpaceOnUse" color-interpolation-filters="sRGB">
<feFlood flood-opacity="0" result="BackgroundImageFix"/>
<feBlend mode="normal" in="SourceGraphic" in2="BackgroundImageFix" result="shape"/>
<feGaussianBlur stdDeviation="2" result="effect1_foregroundBlur_261_4277"/>
</filter>
<filter id="filter3_f_261_4277" x="8.78516" y="13.0742" width="91.377" height="105.782" filterUnits="userSpaceOnUse" color-interpolation-filters="sRGB">
<feFlood flood-opacity="0" result="BackgroundImageFix"/>
<feBlend mode="normal" in="SourceGraphic" in2="BackgroundImageFix" result="shape"/>
<feGaussianBlur stdDeviation="2" result="effect1_foregroundBlur_261_4277"/>
</filter>
<linearGradient id="paint0_linear_261_4277" x1="21.8018" y1="88.1672" x2="96.7757" y2="27.1586" gradientUnits="userSpaceOnUse">
<stop stop-color="#2ECBB3"/>
<stop offset="0.379808" stop-color="#369A97"/>
<stop offset="1" stop-color="#0F2622"/>
</linearGradient>
<linearGradient id="paint1_linear_261_4277" x1="85.5938" y1="102.57" x2="29.5876" y2="20.4467" gradientUnits="userSpaceOnUse">
<stop stop-color="white"/>
<stop offset="0.471154" stop-opacity="0"/>
</linearGradient>
<linearGradient id="paint2_linear_261_4277" x1="104.456" y1="39.3089" x2="20.5918" y2="87.48" gradientUnits="userSpaceOnUse">
<stop offset="0.471154" stop-color="#2A9979" stop-opacity="0"/>
<stop offset="1" stop-color="#00FFCB"/>
</linearGradient>
<linearGradient id="paint3_linear_261_4277" x1="33.7292" y1="67.276" x2="65.6833" y2="39.0983" gradientUnits="userSpaceOnUse">
<stop stop-color="#AFEAE5"/>
<stop offset="0.725962" stop-color="#B9B9B9" stop-opacity="0"/>
</linearGradient>
<linearGradient id="paint4_linear_261_4277" x1="92.0315" y1="112.593" x2="17.375" y2="34.4504" gradientUnits="userSpaceOnUse">
<stop stop-color="#AFEAE3" stop-opacity="0"/>
<stop offset="0.560675" stop-color="white"/>
<stop offset="1" stop-color="#AFEAE6" stop-opacity="0"/>
</linearGradient>
<linearGradient id="paint5_linear_261_4277" x1="57.0364" y1="38.617" x2="86.7394" y2="69.1585" gradientUnits="userSpaceOnUse">
<stop stop-color="#AFEAE5"/>
<stop offset="0.725962" stop-color="#B9B9B9" stop-opacity="0"/>
</linearGradient>
<linearGradient id="paint6_linear_261_4277" x1="14.6177" y1="99.0605" x2="89.0252" y2="20.6811" gradientUnits="userSpaceOnUse">
<stop stop-color="#AFEAE3" stop-opacity="0"/>
<stop offset="0.560675" stop-color="white"/>
<stop offset="1" stop-color="#AFEAE6" stop-opacity="0"/>
</linearGradient>
</defs>
</svg>
