<svg width="107" height="92" viewBox="0 0 107 92" fill="none" xmlns="http://www.w3.org/2000/svg">
<path opacity="0.4" d="M106.218 55.6956L66.4355 77.1782V91.4999L106.218 70.4151V55.6956Z" fill="url(#paint0_linear_261_4242)"/>
<path opacity="0.4" d="M66.4355 77.1782L1.58984 64.8456L11.0898 59.4999L66.4355 70L96.5898 54L106.218 55.6956L66.4355 77.1782Z" fill="url(#paint1_linear_261_4242)"/>
<path opacity="0.4" d="M1.58984 79.1674V64.8457L66.4355 77.1783V91.5001L1.58984 79.1674Z" fill="url(#paint2_linear_261_4242)"/>
<g filter="url(#filter0_f_261_4242)">
<ellipse cx="53.0105" cy="59.5458" rx="33.0196" ry="9.78716" transform="rotate(2.83598 53.0105 59.5458)" fill="#03D0B0"/>
</g>
<path opacity="0.4" d="M106.218 34.2131L66.4355 55.6957V70.0175L106.218 48.9327V34.2131Z" fill="url(#paint3_linear_261_4242)"/>
<path opacity="0.4" d="M1.58984 43.363L40.9746 21.8804L106.218 34.213L66.4355 55.6956L1.58984 43.363Z" fill="url(#paint4_linear_261_4242)"/>
<path opacity="0.4" d="M1.58984 57.6848V43.363L66.4355 55.6956V70.0174L1.58984 57.6848Z" fill="url(#paint5_linear_261_4242)"/>
<g filter="url(#filter1_f_261_4242)">
<ellipse cx="52.983" cy="34.6405" rx="33.0196" ry="10.3435" transform="rotate(2.83598 52.983 34.6405)" fill="#03D0B0"/>
</g>
<path d="M106.218 12.3325L66.4355 33.8151V48.1369L106.218 27.0521V12.3325Z" fill="url(#paint6_linear_261_4242)"/>
<path d="M1.58984 21.4826L40.9746 0L106.218 12.3326L66.4355 33.8152L1.58984 21.4826Z" fill="url(#paint7_linear_261_4242)"/>
<path d="M1.58984 35.8044V21.4827L66.4355 33.8153V48.137L1.58984 35.8044Z" fill="url(#paint8_linear_261_4242)"/>
<defs>
<filter id="filter0_f_261_4242" x="0.027832" y="29.6335" width="105.965" height="59.8247" filterUnits="userSpaceOnUse" color-interpolation-filters="sRGB">
<feFlood flood-opacity="0" result="BackgroundImageFix"/>
<feBlend mode="normal" in="SourceGraphic" in2="BackgroundImageFix" result="shape"/>
<feGaussianBlur stdDeviation="10" result="effect1_foregroundBlur_261_4242"/>
</filter>
<filter id="filter1_f_261_4242" x="0" y="4.17993" width="105.966" height="60.9214" filterUnits="userSpaceOnUse" color-interpolation-filters="sRGB">
<feFlood flood-opacity="0" result="BackgroundImageFix"/>
<feBlend mode="normal" in="SourceGraphic" in2="BackgroundImageFix" result="shape"/>
<feGaussianBlur stdDeviation="10" result="effect1_foregroundBlur_261_4242"/>
</filter>
<linearGradient id="paint0_linear_261_4242" x1="82.3486" y1="68.0282" x2="89.1116" y2="79.1673" gradientUnits="userSpaceOnUse">
<stop stop-color="#3AE2C8"/>
<stop offset="1" stop-color="#C3EAF1"/>
</linearGradient>
<linearGradient id="paint1_linear_261_4242" x1="1.58984" y1="60.2706" x2="106.218" y2="60.2706" gradientUnits="userSpaceOnUse">
<stop stop-color="#07D4AA"/>
<stop offset="1" stop-color="#C7EBF2"/>
</linearGradient>
<linearGradient id="paint2_linear_261_4242" x1="33.0181" y1="71.2109" x2="31.4268" y2="83.5435" gradientUnits="userSpaceOnUse">
<stop stop-color="#3AE2C8"/>
<stop offset="1" stop-color="#C3EAF1"/>
</linearGradient>
<linearGradient id="paint3_linear_261_4242" x1="82.3486" y1="46.5457" x2="89.1116" y2="57.6849" gradientUnits="userSpaceOnUse">
<stop stop-color="#3AE2C8"/>
<stop offset="1" stop-color="#C3EAF1"/>
</linearGradient>
<linearGradient id="paint4_linear_261_4242" x1="1.58984" y1="38.788" x2="106.218" y2="38.788" gradientUnits="userSpaceOnUse">
<stop stop-color="#07D4AA"/>
<stop offset="1" stop-color="#C7EBF2"/>
</linearGradient>
<linearGradient id="paint5_linear_261_4242" x1="33.0181" y1="49.7283" x2="31.4268" y2="62.0609" gradientUnits="userSpaceOnUse">
<stop stop-color="#3AE2C8"/>
<stop offset="1" stop-color="#C3EAF1"/>
</linearGradient>
<linearGradient id="paint6_linear_261_4242" x1="82.3486" y1="24.6651" x2="89.1116" y2="35.8043" gradientUnits="userSpaceOnUse">
<stop stop-color="#3AE2C8"/>
<stop offset="1" stop-color="#C3EAF1"/>
</linearGradient>
<linearGradient id="paint7_linear_261_4242" x1="1.58984" y1="16.9076" x2="106.218" y2="16.9076" gradientUnits="userSpaceOnUse">
<stop stop-color="#07D4AA"/>
<stop offset="1" stop-color="#C7EBF2"/>
</linearGradient>
<linearGradient id="paint8_linear_261_4242" x1="33.0181" y1="27.8479" x2="31.4268" y2="40.1805" gradientUnits="userSpaceOnUse">
<stop stop-color="#3AE2C8"/>
<stop offset="1" stop-color="#C3EAF1"/>
</linearGradient>
</defs>
</svg>
