<svg preserveAspectRatio="none" width="100%" height="100%" overflow="visible" style="display: block;" viewBox="0 0 48 48" fill="none" xmlns="http://www.w3.org/2000/svg">
<g id="Frame">
<path id="Vector" fill-rule="evenodd" clip-rule="evenodd" d="M41.0149 11.027C41.1081 11.027 41.2071 10.9984 41.2987 11.0541C41.3026 11.1696 41.2093 11.2223 41.1502 11.2905C37.7154 15.2422 34.2811 19.1948 30.8337 23.1356C30.6175 23.382 30.6906 23.5005 30.8609 23.6999C34.8588 28.3692 38.8519 33.0433 42.8443 37.7173C42.9035 37.787 42.9937 37.8407 43 37.9553C42.9029 38.0258 42.7931 37.9918 42.6919 37.9918C38.6125 37.9932 34.5321 37.9912 30.4527 37.9989C30.2224 37.9997 30.0826 37.9227 29.941 37.7507C28.1156 35.5362 26.2828 33.3278 24.4519 31.1179C24.1875 30.7986 24.1882 30.7992 23.9083 31.1209C22.973 32.1959 22.0329 33.268 21.103 34.3478C20.9718 34.5005 20.8387 34.568 20.6336 34.5664C19.1376 34.5579 17.6416 34.5627 16.1458 34.5595C16.0555 34.5595 15.9257 34.6144 15.8814 34.5123C15.8385 34.4138 15.9621 34.3502 16.0212 34.2811C20.292 29.3211 24.5645 24.3631 28.837 19.4054C31.1787 16.6878 33.5213 13.9711 35.8584 11.2488C35.9976 11.0868 36.1354 11.0185 36.3522 11.0201C37.9064 11.0302 39.4607 11.0247 41.0149 11.027ZM27.992 11.8067C28.4933 11.2324 28.9772 10.9649 29.7569 11.0037C31.1806 11.0742 32.6112 11.0223 34.0385 11.0254C34.1397 11.0262 34.25 10.9899 34.3736 11.0844C34.1637 11.3285 33.9592 11.5688 33.7524 11.8067C29.4551 16.7412 25.157 21.6743 20.8606 26.6088C17.6206 30.3294 14.3831 34.051 11.148 37.7754C11.0166 37.9266 10.8814 37.9948 10.6762 37.994C8.87007 37.9863 7.06306 37.9896 5.25694 37.9879C5.17374 37.9879 5.05389 38.0313 5.01345 37.9529C4.95836 37.8484 5.08651 37.7894 5.14483 37.7221C9.17996 33.048 13.3047 28.4522 17.3906 23.8214C20.9236 19.8163 24.4791 15.8297 27.992 11.8067ZM19.2614 11.0201C19.4658 11.0201 19.6009 11.0844 19.7324 11.2371C20.8263 12.5083 21.9234 13.7771 23.0299 15.0367C23.2134 15.2452 23.2475 15.3693 23.0329 15.6003C20.9943 17.7947 18.9697 20.0023 16.949 22.2138C16.7763 22.4029 16.6954 22.4208 16.5128 22.2162C13.2433 18.5459 9.96537 14.884 6.68814 11.2207C6.65008 11.1781 6.61516 11.1331 6.56312 11.0711C6.68667 10.9984 6.7846 11.0254 6.87785 11.0254C11.0056 11.0231 15.1336 11.0255 19.2614 11.0201Z" fill="var(--fill-0, #333333)"/>
</g>
</svg>
