<svg width="101" height="99" viewBox="0 0 101 99" fill="none" xmlns="http://www.w3.org/2000/svg">
<g filter="url(#filter0_f_261_4206)">
<rect x="15" y="4" width="82" height="83" rx="16" fill="url(#paint0_linear_261_4206)"/>
</g>
<rect y="11" width="88" height="88" rx="16" fill="url(#paint1_linear_261_4206)" fill-opacity="0.1"/>
<path fill-rule="evenodd" clip-rule="evenodd" d="M69.1268 34.039C69.2618 34.039 69.405 33.9976 69.5376 34.0782C69.5432 34.245 69.4082 34.3211 69.3226 34.4197C64.3512 40.1276 59.3806 45.8369 54.3909 51.5293C54.0779 51.8851 54.1838 52.0563 54.4303 52.3442C60.2168 59.0888 65.9962 65.8403 71.7747 72.5916C71.8603 72.6923 71.9909 72.7698 72 72.9355C71.8594 73.0373 71.7006 72.9881 71.5541 72.9881C65.6497 72.9902 59.7438 72.9873 53.8394 72.9984C53.5062 72.9996 53.3038 72.8884 53.0988 72.6399C50.4567 69.4412 47.8041 66.2512 45.1541 63.0592C44.7714 62.598 44.7723 62.5989 44.3673 63.0636C43.0135 64.6163 41.6529 66.1649 40.307 67.7246C40.117 67.9452 39.9244 68.0427 39.6276 68.0403C37.4623 68.0281 35.297 68.0351 33.132 68.0304C33.0014 68.0304 32.8135 68.1097 32.7494 67.9622C32.6873 67.82 32.8661 67.7281 32.9517 67.6283C39.1332 60.4639 45.317 53.3023 51.5009 46.1412C54.8903 42.2158 58.2809 38.2915 61.6635 34.3594C61.865 34.1254 62.0644 34.0268 62.3782 34.029C64.6276 34.0436 66.8773 34.0357 69.1268 34.039ZM50.2779 35.1652C51.0035 34.3357 51.7038 33.9493 52.8323 34.0053C54.8929 34.1072 56.9635 34.0323 59.0294 34.0367C59.1759 34.0379 59.3356 33.9854 59.5144 34.1219C59.2106 34.4745 58.9147 34.8216 58.6153 35.1652C52.3956 42.2929 46.1747 49.4185 39.9561 56.5461C35.2667 61.9203 30.5808 67.2959 25.8985 72.6756C25.7082 72.8939 25.5126 72.9925 25.2155 72.9914C22.6014 72.9802 19.986 72.9849 17.3719 72.9826C17.2515 72.9826 17.078 73.0452 17.0195 72.932C16.9397 72.781 17.1252 72.6958 17.2096 72.5986C23.0499 65.8471 29.02 59.2088 34.9338 52.5198C40.0473 46.7347 45.1935 40.9762 50.2779 35.1652ZM37.6414 34.029C37.9373 34.029 38.1329 34.122 38.3232 34.3425C39.9064 36.1787 41.4944 38.0114 43.0958 39.8308C43.3614 40.1319 43.4109 40.3113 43.1003 40.6449C40.1497 43.8146 37.2194 47.0034 34.2947 50.1977C34.0447 50.4709 33.9276 50.4967 33.6632 50.2012C28.9311 44.8996 24.1867 39.6102 19.4434 34.3188C19.3883 34.2572 19.3377 34.1922 19.2624 34.1028C19.4412 33.9976 19.583 34.0367 19.7179 34.0367C25.6923 34.0334 31.667 34.0369 37.6414 34.029Z" fill="#0E1E1B" fill-opacity="0.8"/>
<defs>
<filter id="filter0_f_261_4206" x="11" y="0" width="90" height="91" filterUnits="userSpaceOnUse" color-interpolation-filters="sRGB">
<feFlood flood-opacity="0" result="BackgroundImageFix"/>
<feBlend mode="normal" in="SourceGraphic" in2="BackgroundImageFix" result="shape"/>
<feGaussianBlur stdDeviation="2" result="effect1_foregroundBlur_261_4206"/>
</filter>
<linearGradient id="paint0_linear_261_4206" x1="24.84" y1="14.79" x2="79.7582" y2="82.1997" gradientUnits="userSpaceOnUse">
<stop stop-color="#C7EBF2"/>
<stop offset="1" stop-color="#07D4AA"/>
</linearGradient>
<linearGradient id="paint1_linear_261_4206" x1="44" y1="11" x2="44" y2="99" gradientUnits="userSpaceOnUse">
<stop stop-color="#3AE2C8"/>
<stop offset="1" stop-color="#C7EBF2"/>
</linearGradient>
</defs>
</svg>
