<svg
  width="100%"
  height="100%"
  viewBox="16 20 128 96"
  fill="none"
  xmlns="http://www.w3.org/2000/svg"
>
  <defs>
    <linearGradient id="signalGrad" x1="26" y1="24" x2="140" y2="92" gradientUnits="userSpaceOnUse">
      <stop offset="0" stop-color="#D5F5FF" />
      <stop offset="1" stop-color="#18D9B8" />
    </linearGradient>
    <filter id="signalGlow" x="4" y="0" width="152" height="120" filterUnits="userSpaceOnUse">
      <feGaussianBlur stdDeviation="6" />
    </filter>
  </defs>

  <g filter="url(#signalGlow)" opacity="0.42">
    <path
      d="M24 44C54 13.5 106 13.5 136 44"
      stroke="url(#signalGrad)"
      stroke-width="10"
      stroke-linecap="round"
    />
    <path
      d="M40 61C62.5 39.5 97.5 39.5 120 61"
      stroke="url(#signalGrad)"
      stroke-width="9"
      stroke-linecap="round"
    />
    <path
      d="M56.5 77.5C71 64.5 89 64.5 103.5 77.5"
      stroke="url(#signalGrad)"
      stroke-width="8"
      stroke-linecap="round"
    />
  </g>

  <path
    d="M24 44C54 13.5 106 13.5 136 44"
    stroke="url(#signalGrad)"
    stroke-width="10"
    stroke-linecap="round"
  />
  <path
    d="M40 61C62.5 39.5 97.5 39.5 120 61"
    stroke="url(#signalGrad)"
    stroke-width="9"
    stroke-linecap="round"
  />
  <path
    d="M56.5 77.5C71 64.5 89 64.5 103.5 77.5"
    stroke="url(#signalGrad)"
    stroke-width="8"
    stroke-linecap="round"
  />
  <path
    d="M70 91.5C75.5 86.3 84.5 86.3 90 91.5"
    stroke="url(#signalGrad)"
    stroke-width="7"
    stroke-linecap="round"
  />
  <circle cx="80" cy="103.5" r="10.5" fill="#2CDCC0" />
</svg>
